<svg width="16" height="16" viewBox="0 0 16 16" fill="none" xmlns="http://www.w3.org/2000/svg">
<rect width="16" height="16" fill="#F5F5F5"/>
<rect width="16" height="16" rx="8" fill="#FF8D28"/>
<path d="M7.16795 4.24808C7.56377 3.65434 8.43623 3.65434 8.83205 4.24808L12.9635 10.4453C13.4066 11.1099 12.9302 12 12.1315 12H3.86852C3.06982 12 2.59343 11.1099 3.03647 10.4453L7.16795 4.24808Z" fill="white"/>
<path d="M8 9.9C8.13077 9.9 8.24057 9.94295 8.32903 10.0292C8.41749 10.1154 8.46154 10.2225 8.46154 10.35C8.46154 10.4775 8.41749 10.5846 8.32903 10.6708C8.24057 10.7571 8.13077 10.8 8 10.8C7.86923 10.8 7.75944 10.7571 7.67097 10.6708C7.58251 10.5846 7.53846 10.4775 7.53846 10.35C7.53846 10.2225 7.58251 10.1154 7.67097 10.0292C7.75944 9.94295 7.86923 9.9 8 9.9Z" fill="#FF8D28"/>
<path d="M8.46154 9H7.53846V5.4H8.46154V9Z" fill="#FF8D28"/>
</svg>
