<svg width="16" height="16" viewBox="0 0 16 16" fill="none" xmlns="http://www.w3.org/2000/svg">
<rect width="16" height="16" fill="#F5F5F5"/>
<g opacity="0.1">
<rect width="16" height="16" rx="8" fill="white"/>
</g>
<path d="M8 11.3333C8.18889 11.3333 8.34722 11.2694 8.475 11.1417C8.60278 11.0139 8.66667 10.8556 8.66667 10.6667C8.66667 10.4778 8.60278 10.3194 8.475 10.1917C8.34722 10.0639 8.18889 10 8 10C7.81111 10 7.65278 10.0639 7.525 10.1917C7.39722 10.3194 7.33333 10.4778 7.33333 10.6667C7.33333 10.8556 7.39722 11.0139 7.525 11.1417C7.65278 11.2694 7.81111 11.3333 8 11.3333ZM7.33333 8.66667H8.66667V4.66667H7.33333V8.66667ZM8 14.6667C7.07778 14.6667 6.21111 14.4917 5.4 14.1417C4.58889 13.7917 3.88333 13.3167 3.28333 12.7167C2.68333 12.1167 2.20833 11.4111 1.85833 10.6C1.50833 9.78889 1.33333 8.92222 1.33333 8C1.33333 7.07778 1.50833 6.21111 1.85833 5.4C2.20833 4.58889 2.68333 3.88333 3.28333 3.28333C3.88333 2.68333 4.58889 2.20833 5.4 1.85833C6.21111 1.50833 7.07778 1.33333 8 1.33333C8.92222 1.33333 9.78889 1.50833 10.6 1.85833C11.4111 2.20833 12.1167 2.68333 12.7167 3.28333C13.3167 3.88333 13.7917 4.58889 14.1417 5.4C14.4917 6.21111 14.6667 7.07778 14.6667 8C14.6667 8.92222 14.4917 9.78889 14.1417 10.6C13.7917 11.4111 13.3167 12.1167 12.7167 12.7167C12.1167 13.3167 11.4111 13.7917 10.6 14.1417C9.78889 14.4917 8.92222 14.6667 8 14.6667Z" fill="#FF383C"/>
</svg>
